<svg id="visual" viewBox="0 0 900 150" width="900" height="150" xmlns="http://www.w3.org/2000/svg" xmlns:xlink="http://www.w3.org/1999/xlink" version="1.1"><rect x="0" y="0" width="900" height="150" fill="#000000"></rect><path d="M0 73L30 77.5C60 82 120 91 180 91.2C240 91.3 300 82.7 360 75.7C420 68.7 480 63.3 540 65.5C600 67.7 660 77.3 720 78.3C780 79.3 840 71.7 870 67.8L900 64L900 0L870 0C840 0 780 0 720 0C660 0 600 0 540 0C480 0 420 0 360 0C300 0 240 0 180 0C120 0 60 0 30 0L0 0Z" fill="#1e40af" stroke-linecap="round" stroke-linejoin="miter"></path></svg>