<svg id="visual" viewBox="0 0 900 150" width="900" height="150" xmlns="http://www.w3.org/2000/svg" xmlns:xlink="http://www.w3.org/1999/xlink" version="1.1"><rect x="0" y="0" width="900" height="150" fill="#1e40af"></rect><path d="M0 55L30 56.7C60 58.3 120 61.7 180 63C240 64.3 300 63.7 360 55.2C420 46.7 480 30.3 540 20.7C600 11 660 8 720 13.2C780 18.3 840 31.7 870 38.3L900 45L900 0L870 0C840 0 780 0 720 0C660 0 600 0 540 0C480 0 420 0 360 0C300 0 240 0 180 0C120 0 60 0 30 0L0 0Z" fill="#000000" stroke-linecap="round" stroke-linejoin="miter"></path></svg>